# File created by Blade
# Date/Time:  Thu Jan 22 19:13:21 2015
#---------------------------------------------------------
:version 1.10
:name HOM
:units
  mass 1.0
  length 1.000000
  angle deg
:documentation
     Acclaim Skeleton File
:root
   axis xyz
   order TX TY TZ RX RY RZ
   position 0.000000 0.000000 0.000000
   orientation 0 0 0
:bonedata
   begin
      id 1
      name RightUpLeg_dum
      direction -1.000000 0.000000 0.000000
      length 4.478084
      axis 0.0 0.0 0.0 xyz
   end
   begin
      id 2
      name LeftUpLeg_dum
      direction 1.000000 0.000000 0.000000
      length 4.478084
      axis 0.0 0.0 0.0 xyz
   end
   begin
      id 3
      name Spine_dum
      direction 0.000000 1.000000 0.000000
      length 6.068208
      axis 0.0 0.0 0.0 xyz
   end
   begin
      id 4
      name RightUpLeg
      direction 0.000000 -1.000000 0.000000
      length 16.405774
      axis 0.0 0.0 0.0 xyz
      dof rx ry rz
   end
   begin
      id 5
      name RightLeg
      direction 0.000000 -1.000000 0.000000
      length 14.644143
      axis 0.0 0.0 0.0 xyz
      dof rx ry rz
   end
   begin
      id 6
      name RightFoot
      direction 0.000000 -0.258819 0.965926
      length 5.806150
      axis 15.0 0.0 0.0 xyz
      dof rx ry rz
   end
   begin
      id 7
      name RightToeBase
      direction 0.000000 0.000000 1.000000
      length 2.952750
      axis 0.0 0.0 0.0 xyz
      dof rx ry rz
   end
   begin
      id 8
      name LeftUpLeg
      direction 0.000000 -1.000000 0.000000
      length 16.405774
      axis 0.0 0.0 0.0 xyz
      dof rx ry rz
   end
   begin
      id 9
      name LeftLeg
      direction 0.000000 -1.000000 0.000000
      length 14.644143
      axis 0.0 0.0 0.0 xyz
      dof rx ry rz
   end
   begin
      id 10
      name LeftFoot
      direction 0.000000 -0.258819 0.965926
      length 5.806150
      axis 15.0 0.0 0.0 xyz
      dof rx ry rz
   end
   begin
      id 11
      name LeftToeBase
      direction 0.000000 0.000000 1.000000
      length 2.952750
      axis 0.0 0.0 0.0 xyz
      dof rx ry rz
   end
   begin
      id 12
      name Spine
      direction 0.000000 1.000000 0.000000
      length 0.000000
      axis 0.0 0.0 0.0 xyz
      dof rx ry rz
   end
   begin
      id 13
      name Spine_dum1
      direction 0.000000 1.000000 0.000000
      length 10.013923
      axis 0.0 0.0 0.0 xyz
   end
   begin
      id 14
      name Spine_dum2
      direction 0.000000 1.000000 0.000000
      length 10.013923
      axis 0.0 0.0 0.0 xyz
   end
   begin
      id 15
      name Spine_dum3
      direction 0.000000 1.000000 0.000000
      length 15.777476
      axis 0.0 0.0 0.0 xyz
   end
   begin
      id 16
      name RightShoulder
      direction -1.000000 0.000000 0.000000
      length 7.190220
      axis 0.0 0.0 90.0 xyz
      dof rx ry rz
   end
   begin
      id 17
      name RightArm
      direction -1.000000 0.000000 0.000000
      length 10.177469
      axis 0.0 0.0 90.0 xyz
      dof rx ry rz
   end
   begin
      id 18
      name RightForeArm
      direction -1.000000 0.000000 0.000000
      length 8.392114
      axis 0.0 0.0 90.0 xyz
      dof ry rz rx
   end
   begin
      id 19
      name RightHand
      direction -1.000000 0.000000 0.000000
      length 0.000000
      axis 0.0 0.0 90.0 xyz
      dof rx ry rz
   end
   begin
      id 20
      name RightHand_dum1
      direction -1.000000 0.000000 0.000000
      length 3.937000
      axis 0.0 0.0 90.0 xyz
   end
   begin
      id 21
      name RightHand_dum2
      direction 0.000000 0.000000 0.000000
      length 0.000000
      axis 0.0 0.0 90.0 xyz
   end
   begin
      id 22
      name RightHandThumb1
      direction 0.000000 0.000000 1.000000
      length 3.937000
      axis 0.0 0.0 90.0 xyz
      dof rx rz ry
   end
   begin
      id 23
      name LeftShoulder
      direction 1.000000 0.000000 0.000000
      length 7.190220
      axis 0.0 0.0 -90.0 xyz
      dof rx ry rz
   end
   begin
      id 24
      name LeftArm
      direction 1.000000 0.000000 0.000000
      length 10.177469
      axis 0.0 0.0 -90.0 xyz
      dof rx ry rz
   end
   begin
      id 25
      name LeftForeArm
      direction 1.000000 0.000000 0.000000
      length 8.392114
      axis 0.0 0.0 -90.0 xyz
      dof ry rz rx
   end
   begin
      id 26
      name LeftHand
      direction 1.000000 0.000000 0.000000
      length 0.000000
      axis 0.0 0.0 -90.0 xyz
      dof rx ry rz
   end
   begin
      id 27
      name LeftHand_dum1
      direction 1.000000 0.000000 0.000000
      length 3.937000
      axis 0.0 0.0 -90.0 xyz
   end
   begin
      id 28
      name LeftHand_dum2
      direction 0.000000 0.000000 0.000000
      length 0.000000
      axis 0.0 0.0 -90.0 xyz
   end
   begin
      id 29
      name LeftHandThumb1
      direction 0.000000 0.000000 1.000000
      length 3.937000
      axis 0.0 0.0 -90.0 xyz
      dof rx rz ry
   end
   begin
      id 30
      name Head
      direction 0.000000 1.000000 0.000000
      length 4.527550
      axis 0.0 0.0 0.0 xyz
      dof rx ry rz
   end
:hierarchy
   begin
      root RightUpLeg_dum LeftUpLeg_dum Spine_dum
      RightUpLeg_dum RightUpLeg
      LeftUpLeg_dum LeftUpLeg
      Spine_dum Spine
      RightUpLeg RightLeg
      RightLeg RightFoot
      RightFoot RightToeBase
      LeftUpLeg LeftLeg
      LeftLeg LeftFoot
      LeftFoot LeftToeBase
      Spine Spine_dum1 Spine_dum2 Spine_dum3
      Spine_dum1 RightShoulder
      Spine_dum2 LeftShoulder
      Spine_dum3 Head
      RightShoulder RightArm
      RightArm RightForeArm
      RightForeArm RightHand
      RightHand RightHand_dum1 RightHand_dum2
      RightHand_dum2 RightHandThumb1
      LeftShoulder LeftArm
      LeftArm LeftForeArm
      LeftForeArm LeftHand
      LeftHand LeftHand_dum1 LeftHand_dum2
      LeftHand_dum2 LeftHandThumb1
   end

# File created by Blade
# Date/Time:  Thu Jan 22 19:13:14 2015
# Frame Rate: 120.000 fps
#------------------------------------------------------
:FULLY-SPECIFIED
:DEGREES
734
root 5.102692 30.914775 -3.334831 14.874234 -18.574981 9.370571
RightUpLeg -24.830639 -35.959726 -13.809394
RightLeg -5.483149 -0.000000 0.000000
RightFoot 4.081423 -4.170481 9.133963
RightToeBase 10.175690 -0.000000 -0.000000
LeftUpLeg -11.896277 9.716003 9.241999
LeftLeg 8.005875 -0.000000 -0.000000
LeftFoot -14.826561 -1.087916 -22.172546
LeftToeBase -0.929925 -0.000000 0.000000
Spine -4.582804 2.753697 9.592524
RightShoulder -18.983761 -8.783801 -26.451116
RightArm 21.959293 55.300890 55.479277
RightForeArm 16.723697 0.000000 34.721847
RightHand 16.984965 0.000000 -4.728048
RightHandThumb1 -24.326973 -0.000000 -32.862282
LeftShoulder -24.920209 6.500430 34.413570
LeftArm 7.896526 -38.547286 -22.935967
LeftForeArm 3.909340 -0.000000 4.050338
LeftHand -0.360681 -0.000000 5.296213
LeftHandThumb1 -26.253704 0.000000 33.147579
Head -10.057000 4.960938 0.582564
735
root 5.088838 30.916073 -3.305638 14.846654 -18.773756 9.259696
RightUpLeg -24.814518 -35.784697 -13.704246
RightLeg -5.496465 -0.000000 0.000000
RightFoot 4.410929 -4.100582 8.402926
RightToeBase 10.025434 -0.000000 -0.000000
LeftUpLeg -11.668805 9.794322 9.353248
LeftLeg 7.906948 -0.000000 -0.000000
LeftFoot -14.816396 -0.951282 -22.319899
LeftToeBase -0.559464 -0.000000 0.000000
Spine -4.779020 2.601468 9.385330
RightShoulder -19.141918 -8.884204 -26.521987
RightArm 21.927098 55.623433 55.326192
RightForeArm 16.529854 -0.000000 35.300898
RightHand 17.113443 -0.000000 -5.044053
RightHandThumb1 -24.326973 -0.000000 -32.862282
LeftShoulder -24.855433 6.363548 34.486538
LeftArm 7.802392 -38.714438 -22.623080
LeftForeArm 4.070765 -0.000000 4.641987
LeftHand -0.313127 -0.000000 5.527660
LeftHandThumb1 -26.253704 0.000000 33.147579
Head -9.859356 4.955180 0.567540
736
root 5.077235 30.914593 -3.275500 14.804483 -19.001083 9.173259
RightUpLeg -24.816131 -35.546863 -13.660335
RightLeg -5.455520 -0.000000 0.000000
RightFoot 4.801197 -4.073765 7.416980
RightToeBase 9.892031 -0.000000 -0.000000
LeftUpLeg -11.434156 9.904127 9.431754
LeftLeg 7.820269 -0.000000 -0.000000
LeftFoot -14.820800 -0.823696 -22.454450
LeftToeBase -0.250474 -0.000000 0.000000
Spine -4.958093 2.437558 9.157617
RightShoulder -19.278585 -9.032884 -26.569302
RightArm 22.019250 55.985143 55.265653
RightForeArm 16.143427 0.000000 35.909100
RightHand 17.064151 0.000000 -5.611874
RightHandThumb1 -24.326973 -0.000000 -32.862282
LeftShoulder -24.808247 6.308015 34.512463
LeftArm 7.801572 -38.942443 -22.318168
LeftForeArm 4.152267 0.000000 5.072862
LeftHand -0.223858 0.000000 5.901945
LeftHandThumb1 -26.253704 0.000000 33.147579
Head -9.638164 4.920249 0.533880
737
root 5.064881 30.910908 -3.244583 14.740650 -19.235982 9.097661
RightUpLeg -24.814848 -35.330608 -13.622600
RightLeg -5.426308 -0.000000 0.000000
RightFoot 5.108304 -4.044991 6.815246
RightToeBase 10.275833 -0.000000 -0.000000
LeftUpLeg -11.181468 10.071869 9.492172
LeftLeg 7.758981 -0.000000 -0.000000
LeftFoot -14.882873 -0.778530 -22.562823
LeftToeBase -0.002129 -0.000000 0.000000
Spine -5.117302 2.283272 8.921564
RightShoulder -19.381931 -9.138609 -26.624912
RightArm 21.845771 56.292416 54.993997
RightForeArm 15.993471 -0.000000 36.653782
RightHand 16.941733 -0.000000 -6.094870
RightHandThumb1 -24.326973 -0.000000 -32.862282
LeftShoulder -24.745423 6.122424 34.579001
LeftArm 7.696888 -39.065771 -21.973075
LeftForeArm 4.245973 0.000000 5.622719
LeftHand -0.270522 -0.000000 6.288365
LeftHandThumb1 -26.253704 0.000000 33.147579
Head -9.428480 5.040713 0.483497
738
root 5.051802 30.905240 -3.211299 14.667379 -19.453793 9.034355
RightUpLeg -24.811195 -35.208500 -13.579111
RightLeg -5.414326 -0.000000 0.000000
RightFoot 5.208643 -4.060605 6.902622
RightToeBase 10.799609 -0.000000 -0.000000
LeftUpLeg -10.928678 10.229179 9.548741
LeftLeg 7.719013 -0.000000 -0.000000
LeftFoot -14.958360 -0.779293 -22.621093
LeftToeBase 0.127004 -0.000000 -0.000000
Spine -5.276804 2.116471 8.678730
RightShoulder -19.469293 -9.172882 -26.686854
RightArm 21.523598 56.570379 54.578832
RightForeArm 15.714573 -0.000000 37.410236
RightHand 16.883542 0.000000 -6.623566
RightHandThumb1 -24.326973 -0.000000 -32.862282
LeftShoulder -24.706437 5.980392 34.635984
LeftArm 7.686392 -39.383412 -21.727712
LeftForeArm 4.386642 -0.000000 6.189619
LeftHand -0.450860 0.000000 6.631962
LeftHandThumb1 -26.253704 0.000000 33.147579
Head -9.223473 5.028554 0.464294
739
root 5.039867 30.899009 -3.177279 14.598911 -19.679918 8.964494
RightUpLeg -24.817449 -35.132983 -13.505659
RightLeg -5.428137 -0.000000 0.000000
RightFoot 5.336316 -4.099867 7.006430
RightToeBase 10.727356 -0.000000 -0.000000
LeftUpLeg -10.675890 10.352694 9.615969
LeftLeg 7.687604 -0.000000 -0.000000
LeftFoot -15.069015 -0.765471 -22.743131
LeftToeBase 0.230876 -0.000000 -0.000000
Spine -5.429600 1.962499 8.464559
RightShoulder -19.594279 -9.305037 -26.724795
RightArm 21.387437 56.863669 54.302700
RightForeArm 15.342016 -0.000000 38.169729
RightHand 16.751686 0.000000 -7.149259
RightHandThumb1 -24.326973 -0.000000 -32.862282
LeftShoulder -24.725796 5.937230 34.585042
LeftArm 7.832994 -39.815951 -21.578502
LeftForeArm 4.350665 -0.000000 6.778345
LeftHand -0.608674 -0.000000 7.073503
LeftHandThumb1 -26.253704 0.000000 33.147579
Head -9.008044 5.061211 0.395446
